<?xml version="1.0" standalone="yes"?>
<!-- SVG graphic -->
<svg xmlns='http://www.w3.org/2000/svg' xmlns:xlink='http://www.w3.org/1999/xlink'
 version="1.1">
<rect x="0" y="0" width="6" height="200" stroke="black" stroke-width="1" fill="blue" tooltip="enable"><title>(0,224384)</title></rect><rect x="6" y="6.92384" width="6" height="193.076" stroke="black" stroke-width="1" fill="blue" tooltip="enable"><title>(0.0397026,216616)</title></rect><rect x="12" y="14.9307" width="6" height="185.069" stroke="black" stroke-width="1" fill="blue" tooltip="enable"><title>(0.0794053,207633)</title></rect><rect x="18" y="26.9404" width="6" height="173.06" stroke="black" stroke-width="1" fill="blue" tooltip="enable"><title>(0.119108,194159)</title></rect><rect x="24" y="39.255" width="6" height="160.745" stroke="black" stroke-width="1" fill="blue" tooltip="enable"><title>(0.158811,180343)</title></rect><rect x="30" y="52.0224" width="6" height="147.978" stroke="black" stroke-width="1" fill="blue" tooltip="enable"><title>(0.198513,166019)</title></rect><rect x="36" y="64.7479" width="6" height="135.252" stroke="black" stroke-width="1" fill="blue" tooltip="enable"><title>(0.238216,151742)</title></rect><rect x="42" y="75.9698" width="6" height="124.03" stroke="black" stroke-width="1" fill="blue" tooltip="enable"><title>(0.277918,139152)</title></rect><rect x="48" y="87.6078" width="6" height="112.392" stroke="black" stroke-width="1" fill="blue" tooltip="enable"><title>(0.317621,126095)</title></rect><rect x="54" y="98.3252" width="6" height="101.675" stroke="black" stroke-width="1" fill="blue" tooltip="enable"><title>(0.357324,114071)</title></rect><rect x="60" y="106.951" width="6" height="93.0485" stroke="black" stroke-width="1" fill="blue" tooltip="enable"><title>(0.397026,104393)</title></rect><rect x="66" y="116.007" width="6" height="83.9926" stroke="black" stroke-width="1" fill="blue" tooltip="enable"><title>(0.436729,94233)</title></rect><rect x="72" y="123.906" width="6" height="76.0937" stroke="black" stroke-width="1" fill="blue" tooltip="enable"><title>(0.476432,85371)</title></rect><rect x="78" y="130.194" width="6" height="69.8062" stroke="black" stroke-width="1" fill="blue" tooltip="enable"><title>(0.516134,78317)</title></rect><rect x="84" y="137.425" width="6" height="62.5749" stroke="black" stroke-width="1" fill="blue" tooltip="enable"><title>(0.555837,70204)</title></rect><rect x="90" y="142.836" width="6" height="57.1636" stroke="black" stroke-width="1" fill="blue" tooltip="enable"><title>(0.595539,64133)</title></rect><rect x="96" y="148.619" width="6" height="51.3807" stroke="black" stroke-width="1" fill="blue" tooltip="enable"><title>(0.635242,57645)</title></rect><rect x="102" y="153.146" width="6" height="46.8545" stroke="black" stroke-width="1" fill="blue" tooltip="enable"><title>(0.674945,52567)</title></rect><rect x="108" y="157.458" width="6" height="42.5422" stroke="black" stroke-width="1" fill="blue" tooltip="enable"><title>(0.714647,47729)</title></rect><rect x="114" y="161.949" width="6" height="38.0508" stroke="black" stroke-width="1" fill="blue" tooltip="enable"><title>(0.75435,42690)</title></rect><rect x="120" y="165.216" width="6" height="34.7841" stroke="black" stroke-width="1" fill="blue" tooltip="enable"><title>(0.794053,39025)</title></rect><rect x="126" y="168.514" width="6" height="31.4862" stroke="black" stroke-width="1" fill="blue" tooltip="enable"><title>(0.833755,35325)</title></rect><rect x="132" y="171.453" width="6" height="28.5475" stroke="black" stroke-width="1" fill="blue" tooltip="enable"><title>(0.873458,32028)</title></rect><rect x="138" y="174.397" width="6" height="25.6034" stroke="black" stroke-width="1" fill="blue" tooltip="enable"><title>(0.91316,28725)</title></rect><rect x="144" y="176.939" width="6" height="23.0614" stroke="black" stroke-width="1" fill="blue" tooltip="enable"><title>(0.952863,25873)</title></rect><rect x="150" y="179.129" width="6" height="20.8714" stroke="black" stroke-width="1" fill="blue" tooltip="enable"><title>(0.992566,23416)</title></rect><rect x="156" y="180.806" width="6" height="19.1939" stroke="black" stroke-width="1" fill="blue" tooltip="enable"><title>(1.03227,21534)</title></rect><rect x="162" y="182.883" width="6" height="17.1171" stroke="black" stroke-width="1" fill="blue" tooltip="enable"><title>(1.07197,19204)</title></rect><rect x="168" y="184.357" width="6" height="15.6428" stroke="black" stroke-width="1" fill="blue" tooltip="enable"><title>(1.11167,17550)</title></rect><rect x="174" y="185.773" width="6" height="14.2265" stroke="black" stroke-width="1" fill="blue" tooltip="enable"><title>(1.15138,15961)</title></rect><rect x="180" y="186.952" width="6" height="13.0482" stroke="black" stroke-width="1" fill="blue" tooltip="enable"><title>(1.19108,14639)</title></rect><rect x="186" y="188.178" width="6" height="11.8217" stroke="black" stroke-width="1" fill="blue" tooltip="enable"><title>(1.23078,13263)</title></rect><rect x="192" y="189.29" width="6" height="10.7102" stroke="black" stroke-width="1" fill="blue" tooltip="enable"><title>(1.27048,12016)</title></rect><rect x="198" y="190.519" width="6" height="9.48107" stroke="black" stroke-width="1" fill="blue" tooltip="enable"><title>(1.31019,10637)</title></rect><rect x="204" y="191.096" width="6" height="8.90438" stroke="black" stroke-width="1" fill="blue" tooltip="enable"><title>(1.34989,9990)</title></rect><rect x="210" y="192.04" width="6" height="7.95957" stroke="black" stroke-width="1" fill="blue" tooltip="enable"><title>(1.38959,8930)</title></rect><rect x="216" y="192.675" width="6" height="7.32494" stroke="black" stroke-width="1" fill="blue" tooltip="enable"><title>(1.42929,8218)</title></rect><rect x="222" y="193.344" width="6" height="6.65555" stroke="black" stroke-width="1" fill="blue" tooltip="enable"><title>(1.469,7467)</title></rect><rect x="228" y="194.087" width="6" height="5.91308" stroke="black" stroke-width="1" fill="blue" tooltip="enable"><title>(1.5087,6634)</title></rect><rect x="234" y="194.613" width="6" height="5.38719" stroke="black" stroke-width="1" fill="blue" tooltip="enable"><title>(1.5484,6044)</title></rect><rect x="240" y="195.074" width="6" height="4.92638" stroke="black" stroke-width="1" fill="blue" tooltip="enable"><title>(1.58811,5527)</title></rect><rect x="246" y="195.52" width="6" height="4.47982" stroke="black" stroke-width="1" fill="blue" tooltip="enable"><title>(1.62781,5026)</title></rect><rect x="252" y="196.012" width="6" height="3.98781" stroke="black" stroke-width="1" fill="blue" tooltip="enable"><title>(1.66751,4474)</title></rect><rect x="258" y="196.284" width="6" height="3.71595" stroke="black" stroke-width="1" fill="blue" tooltip="enable"><title>(1.70721,4169)</title></rect><rect x="264" y="196.559" width="6" height="3.44053" stroke="black" stroke-width="1" fill="blue" tooltip="enable"><title>(1.74692,3860)</title></rect><rect x="270" y="196.851" width="6" height="3.14907" stroke="black" stroke-width="1" fill="blue" tooltip="enable"><title>(1.78662,3533)</title></rect><rect x="276" y="197.15" width="6" height="2.85047" stroke="black" stroke-width="1" fill="blue" tooltip="enable"><title>(1.82632,3198)</title></rect><rect x="282" y="197.402" width="6" height="2.59822" stroke="black" stroke-width="1" fill="blue" tooltip="enable"><title>(1.86602,2915)</title></rect><rect x="288" y="197.616" width="6" height="2.38431" stroke="black" stroke-width="1" fill="blue" tooltip="enable"><title>(1.90573,2675)</title></rect><rect x="294" y="197.851" width="6" height="2.14899" stroke="black" stroke-width="1" fill="blue" tooltip="enable"><title>(1.94543,2411)</title></rect><rect x="300" y="198.093" width="6" height="1.90744" stroke="black" stroke-width="1" fill="blue" tooltip="enable"><title>(1.98513,2140)</title></rect><rect x="306" y="198.223" width="6" height="1.77731" stroke="black" stroke-width="1" fill="blue" tooltip="enable"><title>(2.02483,1994)</title></rect><rect x="312" y="198.367" width="6" height="1.63292" stroke="black" stroke-width="1" fill="blue" tooltip="enable"><title>(2.06454,1832)</title></rect><rect x="318" y="198.549" width="6" height="1.45108" stroke="black" stroke-width="1" fill="blue" tooltip="enable"><title>(2.10424,1628)</title></rect><rect x="324" y="198.694" width="6" height="1.3058" stroke="black" stroke-width="1" fill="blue" tooltip="enable"><title>(2.14394,1465)</title></rect><rect x="330" y="198.824" width="6" height="1.17566" stroke="black" stroke-width="1" fill="blue" tooltip="enable"><title>(2.18364,1319)</title></rect><rect x="336" y="198.897" width="6" height="1.10347" stroke="black" stroke-width="1" fill="blue" tooltip="enable"><title>(2.22335,1238)</title></rect><rect x="342" y="198.976" width="6" height="1.02414" stroke="black" stroke-width="1" fill="blue" tooltip="enable"><title>(2.26305,1149)</title></rect><rect x="348" y="199.054" width="6" height="0.9457" stroke="black" stroke-width="1" fill="blue" tooltip="enable"><title>(2.30275,1061)</title></rect><rect x="354" y="199.163" width="6" height="0.836958" stroke="black" stroke-width="1" fill="blue" tooltip="enable"><title>(2.34245,939)</title></rect><rect x="360" y="199.237" width="6" height="0.762978" stroke="black" stroke-width="1" fill="blue" tooltip="enable"><title>(2.38216,856)</title></rect><rect x="366" y="199.304" width="6" height="0.696128" stroke="black" stroke-width="1" fill="blue" tooltip="enable"><title>(2.42186,781)</title></rect><rect x="372" y="199.366" width="6" height="0.633735" stroke="black" stroke-width="1" fill="blue" tooltip="enable"><title>(2.46156,711)</title></rect><rect x="378" y="199.425" width="6" height="0.574907" stroke="black" stroke-width="1" fill="blue" tooltip="enable"><title>(2.50127,645)</title></rect><rect x="384" y="199.477" width="6" height="0.52321" stroke="black" stroke-width="1" fill="blue" tooltip="enable"><title>(2.54097,587)</title></rect><rect x="390" y="199.505" width="6" height="0.494688" stroke="black" stroke-width="1" fill="blue" tooltip="enable"><title>(2.58067,555)</title></rect><rect x="396" y="199.559" width="6" height="0.441208" stroke="black" stroke-width="1" fill="blue" tooltip="enable"><title>(2.62037,495)</title></rect><rect x="402" y="199.576" width="6" height="0.424273" stroke="black" stroke-width="1" fill="blue" tooltip="enable"><title>(2.66008,476)</title></rect><rect x="408" y="199.629" width="6" height="0.370793" stroke="black" stroke-width="1" fill="blue" tooltip="enable"><title>(2.69978,416)</title></rect><rect x="414" y="199.668" width="6" height="0.332466" stroke="black" stroke-width="1" fill="blue" tooltip="enable"><title>(2.73948,373)</title></rect><rect x="420" y="199.681" width="6" height="0.319096" stroke="black" stroke-width="1" fill="blue" tooltip="enable"><title>(2.77918,358)</title></rect><rect x="426" y="199.725" width="6" height="0.274529" stroke="black" stroke-width="1" fill="blue" tooltip="enable"><title>(2.81889,308)</title></rect><rect x="432" y="199.749" width="6" height="0.251355" stroke="black" stroke-width="1" fill="blue" tooltip="enable"><title>(2.85859,282)</title></rect><rect x="438" y="199.764" width="6" height="0.236202" stroke="black" stroke-width="1" fill="blue" tooltip="enable"><title>(2.89829,265)</title></rect><rect x="444" y="199.799" width="6" height="0.200549" stroke="black" stroke-width="1" fill="blue" tooltip="enable"><title>(2.93799,225)</title></rect><rect x="450" y="199.791" width="6" height="0.209462" stroke="black" stroke-width="1" fill="blue" tooltip="enable"><title>(2.9777,235)</title></rect><rect x="456" y="199.814" width="6" height="0.186288" stroke="black" stroke-width="1" fill="blue" tooltip="enable"><title>(3.0174,209)</title></rect><rect x="462" y="199.822" width="6" height="0.178266" stroke="black" stroke-width="1" fill="blue" tooltip="enable"><title>(3.0571,200)</title></rect><rect x="468" y="199.852" width="6" height="0.147961" stroke="black" stroke-width="1" fill="blue" tooltip="enable"><title>(3.0968,166)</title></rect><rect x="474" y="199.875" width="6" height="0.124786" stroke="black" stroke-width="1" fill="blue" tooltip="enable"><title>(3.13651,140)</title></rect><rect x="480" y="199.865" width="6" height="0.134591" stroke="black" stroke-width="1" fill="blue" tooltip="enable"><title>(3.17621,151)</title></rect><rect x="486" y="199.891" width="6" height="0.108742" stroke="black" stroke-width="1" fill="blue" tooltip="enable"><title>(3.21591,122)</title></rect><rect x="492" y="199.908" width="6" height="0.0918069" stroke="black" stroke-width="1" fill="blue" tooltip="enable"><title>(3.25562,103)</title></rect><rect x="498" y="199.904" width="6" height="0.0962636" stroke="black" stroke-width="1" fill="blue" tooltip="enable"><title>(3.29532,108)</title></rect><rect x="504" y="199.915" width="6" height="0.0846763" stroke="black" stroke-width="1" fill="blue" tooltip="enable"><title>(3.33502,95)</title></rect><rect x="510" y="199.929" width="6" height="0.0713063" stroke="black" stroke-width="1" fill="blue" tooltip="enable"><title>(3.37472,80)</title></rect><rect x="516" y="199.951" width="6" height="0.0490231" stroke="black" stroke-width="1" fill="blue" tooltip="enable"><title>(3.41443,55)</title></rect><rect x="522" y="199.948" width="6" height="0.0516971" stroke="black" stroke-width="1" fill="blue" tooltip="enable"><title>(3.45413,58)</title></rect><rect x="528" y="199.957" width="6" height="0.0427838" stroke="black" stroke-width="1" fill="blue" tooltip="enable"><title>(3.49383,48)</title></rect><rect x="534" y="199.957" width="6" height="0.0427838" stroke="black" stroke-width="1" fill="blue" tooltip="enable"><title>(3.53353,48)</title></rect><rect x="540" y="199.964" width="6" height="0.0356532" stroke="black" stroke-width="1" fill="blue" tooltip="enable"><title>(3.57324,40)</title></rect><rect x="546" y="199.971" width="6" height="0.0294139" stroke="black" stroke-width="1" fill="blue" tooltip="enable"><title>(3.61294,33)</title></rect><rect x="552" y="199.973" width="6" height="0.0267399" stroke="black" stroke-width="1" fill="blue" tooltip="enable"><title>(3.65264,30)</title></rect><rect x="558" y="199.967" width="6" height="0.0329792" stroke="black" stroke-width="1" fill="blue" tooltip="enable"><title>(3.69234,37)</title></rect><rect x="564" y="199.983" width="6" height="0.0169353" stroke="black" stroke-width="1" fill="blue" tooltip="enable"><title>(3.73205,19)</title></rect><rect x="570" y="199.987" width="6" height="0.0133699" stroke="black" stroke-width="1" fill="blue" tooltip="enable"><title>(3.77175,15)</title></rect><rect x="576" y="199.989" width="6" height="0.0106959" stroke="black" stroke-width="1" fill="blue" tooltip="enable"><title>(3.81145,12)</title></rect><rect x="582" y="199.991" width="6" height="0.00891329" stroke="black" stroke-width="1" fill="blue" tooltip="enable"><title>(3.85116,10)</title></rect><rect x="588" y="199.995" width="6" height="0.00534797" stroke="black" stroke-width="1" fill="blue" tooltip="enable"><title>(3.89086,6)</title></rect><rect x="594" y="200" width="6" height="0" stroke="black" stroke-width="1" fill="blue" tooltip="enable"><title>(3.93056,0)</title></rect><text x="30" y="240" font-size="20" fill="black">0</text>
<text x="600" y="240" font-size="20" fill="black">3.97026</text>
<polyline points="0,220,600,220" stroke="black" stroke-width="1" fill="none"/>
<text x="720" y="20" font-size="20" fill="black">224384</text>
<text x="720" y="200" font-size="20" fill="black">0</text>
<polyline points="660,0,660,200" stroke="black" stroke-width="1" fill="none"/>
</svg>